<svg xmlns="http://www.w3.org/2000/svg" style="display: none;">

    <symbol id="icon-back" viewBox="0 0 512 512">
      <path d="m384 213l-192 0l0-96l-139 139l139 139l0-96l193 0c23 0 42-19 42-43c0-24-20-43-43-43z"/>
    </symbol>

    <symbol id="icon-search" viewBox="0 0 512 512">
      <path d="m17 452l30 30l94-94l-30-31z m284-431c-104 0-189 85-189 190c0 41 13 78 35 109l36 38c32 26 73 42 118 42c105 0 190-85 190-189c0-105-85-190-190-190z m0 336c-81 0-146-65-146-146c0-81 65-147 146-147c81 0 147 66 147 147c0 81-66 146-147 146z"/>
    </symbol>

    <symbol id="icon-heart" viewBox="0 0 512 512">
      <path d="m256 419l-1 1l-170-217c-7-10-21-22-21-49c0-47 38-85 85-85c47 0 107 38 107 85l0-70c-23-35-62-58-107-58c-70 0-128 58-128 128c0 44 22 64 27 79l208 252z m0 0l1 1l170-217c7-10 21-22 21-49c0-47-38-85-85-85c-47 0-107 38-107 85l0-70c23-35 62-58 107-58c70 0 128 58 128 128c0 44-22 64-27 79l-208 252z"/>
    </symbol>

    <symbol id="icon-star" viewBox="0 0 512 512">
      <path d="m392 502c-8 0-17-2-25-7l-83-44c-14-7-42-7-56 0l-83 44c-20 11-41 8-53-6c-5-6-11-19-8-39l16-92c3-16-6-41-17-53l-67-65c-14-14-20-30-15-45c5-14 19-24 38-27l93-14c16-2 37-18 45-32l41-84c9-18 23-28 38-28c15 0 29 10 38 28l41 84c8 14 29 30 45 32l93 14c19 3 33 13 38 27c5 15-1 31-15 45l-67 65c-11 12-20 37-17 53l16 92c3 20-3 33-8 39c-7 8-17 13-28 13z m-136-99c18 0 35 4 48 11l82 43l-16-92c-5-30 8-69 30-90l66-65l-92-13c-30-5-63-29-77-56l-41-84l-41 84c-14 27-47 51-77 56l-92 13l66 65c22 21 35 60 30 90l-16 92l82-43c13-7 30-11 48-11z"/>
    </symbol>

    <symbol id="icon-spinner" viewBox="0 0 512 512">
      <path d="m480 288l-64 0c-18 0-32-14-32-32c0-18 14-32 32-32l64 0c18 0 32 14 32 32c0 18-14 32-32 32z m-88-122c-13 12-33 12-45 0c-13-13-13-33 0-46l45-45c12-12 33-12 45 0c13 13 13 33 0 45z m-136 346c-18 0-32-14-32-32l0-64c0-18 14-32 32-32c18 0 32 14 32 32l0 64c0 18-14 32-32 32z m0-384c-18 0-32-14-32-32l0-64c0-18 14-32 32-32c18 0 32 14 32 32l0 64c0 18-14 32-32 32z m-136 309c-12 13-32 13-45 0c-12-12-12-33 0-45l45-45c13-13 33-13 46 0c12 12 12 32 0 45z m0-271l-45-46c-12-12-12-32 0-45c13-12 33-12 45 0l46 45c12 13 12 33 0 46c-13 12-33 12-46 0z m8 90c0 18-14 32-32 32l-64 0c-18 0-32-14-32-32c0-18 14-32 32-32l64 0c18 0 32 14 32 32z m264 91l45 45c13 12 13 33 0 45c-12 13-33 13-45 0l-45-45c-13-13-13-33 0-45c12-13 32-13 45 0z"/>
    </symbol>

</svg>
